<svg xmlns="http://www.w3.org/2000/svg" width="57.467" height="56.66" viewBox="0 0 57.467 56.66">
  <g id="Grupo_651" data-name="Grupo 651" transform="translate(-1159.943 -509.095)">
    <path id="Caminho_1561" data-name="Caminho 1561" d="M1215.32,518.932a22.646,22.646,0,0,0-18.688-9.837h0a22.605,22.605,0,0,0-16.573,7.208,22.64,22.64,0,0,1,19.212-.91c.448.185.894.38,1.335.6h0a22.682,22.682,0,0,1,10.4,30.333h0a22.677,22.677,0,0,1-3.778,5.5,22.674,22.674,0,0,0,12.08-20.047h0A22.559,22.559,0,0,0,1215.32,518.932Z" transform="translate(-8.017 0)" fill="#3db9c9"/>
    <path id="Caminho_1562" data-name="Caminho 1562" d="M1202.1,527.794a22.557,22.557,0,0,0-9.514-8.768h0c-.441-.216-.887-.411-1.335-.6a22.675,22.675,0,0,0-29,10.995h0a22.676,22.676,0,0,0,7,28.28,22.614,22.614,0,0,1-2.534-16.993c.112-.459.235-.917.379-1.374h0a22.688,22.688,0,0,1,28.414-14.864h0A22.629,22.629,0,0,1,1202.1,527.794Z" transform="translate(0 -3.038)" fill="#07497d"/>
    <path id="Caminho_1563" data-name="Caminho 1563" d="M1195.36,569.886h0a22.69,22.69,0,0,1-18.987-25.841h0a22.557,22.557,0,0,1,4.672-10.688,22.577,22.577,0,0,0-9.889,12.612h0c-.144.457-.266.915-.379,1.374a22.672,22.672,0,0,0,39.762,19.517A22.58,22.58,0,0,1,1195.36,569.886Z" transform="translate(-4.056 -9.669)" fill="#e78f10"/>
    <path id="Caminho_1564" data-name="Caminho 1564" d="M1217.977,525.45a22.561,22.561,0,0,1,3.987,12.838h0a22.676,22.676,0,0,1-22.675,22.675h0a22.562,22.562,0,0,1-12.564-3.8,22.653,22.653,0,0,0,15.253,9.573h0a22.682,22.682,0,0,0,25.841-18.988h0A22.672,22.672,0,0,0,1217.977,525.45Z" transform="translate(-10.673 -6.518)" fill="#c60031"/>
  </g>
</svg>
